<svg width="146" height="40" viewBox="0 0 146 40" fill="none" xmlns="http://www.w3.org/2000/svg">
<g clip-path="url(#clip0_5_78)">
<path fill-rule="evenodd" clip-rule="evenodd" d="M19.9999 0C31.0456 0 39.9999 8.95427 39.9999 19.9999C39.9999 31.0457 31.0456 40 19.9999 40C8.95417 40 -0.00012207 31.0457 -0.00012207 19.9999C-0.00012207 8.95427 8.95417 0 19.9999 0ZM39.2322 19.9999C39.2322 9.37827 30.6216 0.767602 19.9999 0.767602C19.1431 0.767602 18.2995 0.823625 17.4723 0.932211C18.0067 0.885485 18.5475 0.861632 19.094 0.861632C29.2436 0.861632 37.4715 9.08952 37.4715 19.2391C37.4715 29.3886 29.2436 37.6165 19.094 37.6165C9.4851 37.6165 1.59859 30.2419 0.785666 20.8437C1.22728 31.074 9.6608 39.2323 19.9999 39.2323C30.6216 39.2323 39.2322 30.6217 39.2322 19.9999ZM36.7039 19.2391C36.7039 9.51342 28.8197 1.62924 19.094 1.62924C18.3044 1.62924 17.5268 1.68122 16.7646 1.78194C17.2339 1.74246 17.7087 1.72231 18.1882 1.72231C27.4418 1.72231 34.9432 9.22379 34.9432 18.4772C34.9432 27.7308 27.4418 35.2322 18.1882 35.2322C9.43882 35.2322 2.25576 28.5257 1.49919 19.9729C1.88386 29.3582 9.61421 36.849 19.094 36.849C28.8197 36.849 36.7039 28.9647 36.7039 19.2391ZM18.1882 2.48992C27.0178 2.48992 34.1756 9.6477 34.1756 18.4772C34.1756 27.3068 27.0178 34.4645 18.1882 34.4645C9.56331 34.4645 2.53348 27.6346 2.21241 19.0881C2.9056 26.8021 9.38805 32.8477 17.2826 32.8477C25.6394 32.8477 32.414 26.0732 32.414 17.7163C32.414 9.35944 25.6394 2.5849 17.2826 2.5849C16.8502 2.5849 16.4221 2.60304 15.999 2.63857C16.7148 2.54056 17.4456 2.48992 18.1882 2.48992ZM31.6463 17.7163C31.6463 9.78344 25.2155 3.35251 17.2826 3.35251C16.6123 3.35251 15.9527 3.39841 15.3069 3.48726C15.6595 3.45966 16.016 3.4456 16.3757 3.4456C23.8365 3.4456 29.8847 9.49371 29.8847 16.9545C29.8847 24.4152 23.8365 30.4634 16.3757 30.4634C9.35349 30.4634 3.58269 25.1053 2.92858 18.2545C3.21157 25.938 9.52977 32.0802 17.2826 32.0802C25.2155 32.0802 31.6463 25.6493 31.6463 17.7163ZM16.3757 4.2132C23.4125 4.2132 29.117 9.91771 29.117 16.9545C29.117 23.9913 23.4125 29.6958 16.3757 29.6958C9.47753 29.6958 3.85971 24.2139 3.64105 17.3688C4.23162 23.3814 9.3022 28.0791 15.4699 28.0791C22.0347 28.0791 27.3564 22.7573 27.3564 16.1926C27.3564 9.62798 22.0347 4.30627 15.4699 4.30627C15.1689 4.30627 14.8705 4.31746 14.575 4.33945C15.1633 4.25624 15.7645 4.2132 16.3757 4.2132ZM26.5888 16.1926C26.5888 10.0519 21.6107 5.07388 15.4699 5.07388C14.9094 5.07388 14.3586 5.11536 13.8203 5.19541C14.066 5.17782 14.3141 5.16886 14.5643 5.16886C20.2323 5.16886 24.8272 9.76373 24.8272 15.4317C24.8272 21.0998 20.2323 25.6946 14.5643 25.6946C9.25295 25.6946 4.88404 21.6601 4.35506 16.4884C4.51188 22.4925 9.42816 27.3115 15.4699 27.3115C21.6107 27.3115 26.5888 22.3334 26.5888 16.1926ZM14.5643 5.93647C19.8084 5.93647 24.0595 10.1876 24.0595 15.4317C24.0595 20.6759 19.8084 24.927 14.5643 24.927C9.38684 24.927 5.17729 20.7834 5.07098 15.6315C5.54925 19.9509 9.21154 23.3103 13.6585 23.3103C18.4304 23.3103 22.2988 19.4419 22.2988 14.6699C22.2988 9.898 18.4304 6.02954 13.6585 6.02954C13.476 6.02954 13.2948 6.0352 13.1151 6.04635C13.5876 5.974 14.0715 5.93647 14.5643 5.93647ZM21.5312 14.6699C21.5312 10.3219 18.0065 6.79715 13.6585 6.79715C13.2218 6.79715 12.7935 6.8327 12.3762 6.90105C12.5005 6.8945 12.6257 6.89118 12.7517 6.89118C16.6275 6.89118 19.7695 10.0332 19.7695 13.909C19.7695 17.7849 16.6275 20.9269 12.7517 20.9269C9.16788 20.9269 6.21149 18.2405 5.78633 14.7715C5.84077 19.0728 9.34439 22.5427 13.6585 22.5427C18.0065 22.5427 21.5312 19.018 21.5312 14.6699ZM12.7517 7.65878C16.2036 7.65878 19.0019 10.4571 19.0019 13.909C19.0019 17.361 16.2036 20.1592 12.7517 20.1592C9.29978 20.1592 6.50145 17.361 6.50145 13.909C6.50145 13.9008 6.50147 13.8924 6.5015 13.8842C6.86089 16.5147 9.11671 18.5416 11.8459 18.5416C14.8252 18.5416 17.2403 16.1264 17.2403 13.1472C17.2403 10.1679 14.8252 7.75283 11.8459 7.75283C11.7786 7.75283 11.7115 7.75406 11.6447 7.75651C12.004 7.6923 12.3739 7.65878 12.7517 7.65878ZM16.4726 13.1472C16.4726 10.5919 14.4012 8.52043 11.8459 8.52043C9.29064 8.52043 7.21918 10.5919 7.21918 13.1472C7.21918 15.7024 9.29064 17.7739 11.8459 17.7739C14.4012 17.7739 16.4726 15.7024 16.4726 13.1472Z" fill="white"/>
<path d="M46.3599 27V12.88H49.4999V27H46.3599ZM48.7799 27V24.24H55.7599V27H48.7799ZM61.8146 27.22C60.8146 27.22 59.9079 27 59.0946 26.56C58.2946 26.1067 57.6612 25.4933 57.1946 24.72C56.7279 23.9467 56.4946 23.08 56.4946 22.12C56.4946 21.16 56.7279 20.3 57.1946 19.54C57.6612 18.78 58.2946 18.18 59.0946 17.74C59.8946 17.2867 60.8012 17.06 61.8146 17.06C62.8279 17.06 63.7346 17.28 64.5346 17.72C65.3346 18.16 65.9679 18.7667 66.4346 19.54C66.9012 20.3 67.1346 21.16 67.1346 22.12C67.1346 23.08 66.9012 23.9467 66.4346 24.72C65.9679 25.4933 65.3346 26.1067 64.5346 26.56C63.7346 27 62.8279 27.22 61.8146 27.22ZM61.8146 24.44C62.2546 24.44 62.6412 24.3467 62.9746 24.16C63.3079 23.96 63.5612 23.6867 63.7346 23.34C63.9212 22.98 64.0146 22.5733 64.0146 22.12C64.0146 21.6667 63.9212 21.2733 63.7346 20.94C63.5479 20.5933 63.2879 20.3267 62.9546 20.14C62.6346 19.94 62.2546 19.84 61.8146 19.84C61.3879 19.84 61.0079 19.94 60.6746 20.14C60.3412 20.3267 60.0812 20.5933 59.8946 20.94C59.7079 21.2867 59.6146 21.6867 59.6146 22.14C59.6146 22.58 59.7079 22.98 59.8946 23.34C60.0812 23.6867 60.3412 23.96 60.6746 24.16C61.0079 24.3467 61.3879 24.44 61.8146 24.44ZM72.778 31.36C71.7113 31.36 70.7713 31.1733 69.958 30.8C69.158 30.44 68.5247 29.9267 68.058 29.26L69.938 27.38C70.2847 27.7933 70.6713 28.1067 71.098 28.32C71.538 28.5333 72.0647 28.64 72.678 28.64C73.438 28.64 74.0313 28.4533 74.458 28.08C74.898 27.7067 75.118 27.18 75.118 26.5V24.02L75.638 21.9L75.178 19.78V17.28H78.178V26.42C78.178 27.42 77.9447 28.2867 77.478 29.02C77.0113 29.7533 76.3713 30.3267 75.558 30.74C74.7447 31.1533 73.818 31.36 72.778 31.36ZM72.638 26.7C71.7447 26.7 70.9513 26.4867 70.258 26.06C69.5647 25.6333 69.018 25.0533 68.618 24.32C68.218 23.5867 68.018 22.7733 68.018 21.88C68.018 20.9733 68.218 20.16 68.618 19.44C69.018 18.7067 69.5647 18.1333 70.258 17.72C70.9513 17.2933 71.7447 17.08 72.638 17.08C73.3047 17.08 73.898 17.2067 74.418 17.46C74.9513 17.7 75.378 18.0467 75.698 18.5C76.0313 18.94 76.218 19.4533 76.258 20.04V23.74C76.218 24.3133 76.0313 24.8267 75.698 25.28C75.378 25.72 74.9513 26.0667 74.418 26.32C73.8847 26.5733 73.2913 26.7 72.638 26.7ZM73.218 23.98C73.6447 23.98 74.0113 23.8867 74.318 23.7C74.638 23.5133 74.878 23.2667 75.038 22.96C75.2113 22.64 75.298 22.28 75.298 21.88C75.298 21.48 75.2113 21.12 75.038 20.8C74.878 20.48 74.638 20.2267 74.318 20.04C74.0113 19.8533 73.6447 19.76 73.218 19.76C72.8047 19.76 72.438 19.8533 72.118 20.04C71.798 20.2267 71.5513 20.48 71.378 20.8C71.2047 21.12 71.118 21.48 71.118 21.88C71.118 22.2533 71.2047 22.6067 71.378 22.94C71.5513 23.26 71.7913 23.5133 72.098 23.7C72.418 23.8867 72.7913 23.98 73.218 23.98ZM85.0177 27.22C84.0177 27.22 83.111 27 82.2977 26.56C81.4977 26.1067 80.8644 25.4933 80.3977 24.72C79.931 23.9467 79.6977 23.08 79.6977 22.12C79.6977 21.16 79.931 20.3 80.3977 19.54C80.8644 18.78 81.4977 18.18 82.2977 17.74C83.0977 17.2867 84.0044 17.06 85.0177 17.06C86.031 17.06 86.9377 17.28 87.7377 17.72C88.5377 18.16 89.171 18.7667 89.6377 19.54C90.1044 20.3 90.3377 21.16 90.3377 22.12C90.3377 23.08 90.1044 23.9467 89.6377 24.72C89.171 25.4933 88.5377 26.1067 87.7377 26.56C86.9377 27 86.031 27.22 85.0177 27.22ZM85.0177 24.44C85.4577 24.44 85.8444 24.3467 86.1777 24.16C86.511 23.96 86.7644 23.6867 86.9377 23.34C87.1244 22.98 87.2177 22.5733 87.2177 22.12C87.2177 21.6667 87.1244 21.2733 86.9377 20.94C86.751 20.5933 86.491 20.3267 86.1577 20.14C85.8377 19.94 85.4577 19.84 85.0177 19.84C84.591 19.84 84.211 19.94 83.8777 20.14C83.5444 20.3267 83.2844 20.5933 83.0977 20.94C82.911 21.2867 82.8177 21.6867 82.8177 22.14C82.8177 22.58 82.911 22.98 83.0977 23.34C83.2844 23.6867 83.5444 23.96 83.8777 24.16C84.211 24.3467 84.591 24.44 85.0177 24.44ZM91.8611 27V17.28H94.9211V27H91.8611ZM93.4011 15.94C92.9211 15.94 92.5211 15.78 92.2011 15.46C91.8945 15.1267 91.7411 14.7267 91.7411 14.26C91.7411 13.78 91.8945 13.38 92.2011 13.06C92.5211 12.74 92.9211 12.58 93.4011 12.58C93.8811 12.58 94.2745 12.74 94.5811 13.06C94.8878 13.38 95.0411 13.78 95.0411 14.26C95.0411 14.7267 94.8878 15.1267 94.5811 15.46C94.2745 15.78 93.8811 15.94 93.4011 15.94ZM102.676 27.2C102.023 27.2 101.423 27.0733 100.876 26.82C100.329 26.5667 99.8826 26.22 99.536 25.78C99.1893 25.3267 98.9893 24.8133 98.936 24.24V20.14C98.9893 19.5667 99.1893 19.0467 99.536 18.58C99.8826 18.1133 100.329 17.7467 100.876 17.48C101.423 17.2133 102.023 17.08 102.676 17.08C103.596 17.08 104.409 17.3 105.116 17.74C105.836 18.18 106.396 18.78 106.796 19.54C107.209 20.3 107.416 21.1667 107.416 22.14C107.416 23.1133 107.209 23.98 106.796 24.74C106.396 25.5 105.836 26.1 105.116 26.54C104.409 26.98 103.596 27.2 102.676 27.2ZM97.076 31.1V17.28H100.136V19.78L99.636 22.14L100.096 24.5V31.1H97.076ZM102.116 24.44C102.556 24.44 102.936 24.34 103.256 24.14C103.589 23.94 103.849 23.6667 104.036 23.32C104.223 22.9733 104.316 22.58 104.316 22.14C104.316 21.6867 104.223 21.2867 104.036 20.94C103.849 20.5933 103.589 20.3267 103.256 20.14C102.936 19.94 102.563 19.84 102.136 19.84C101.709 19.84 101.329 19.94 100.996 20.14C100.676 20.3267 100.423 20.5933 100.236 20.94C100.049 21.2867 99.956 21.6867 99.956 22.14C99.956 22.58 100.043 22.9733 100.216 23.32C100.403 23.6667 100.663 23.94 100.996 24.14C101.329 24.34 101.703 24.44 102.116 24.44ZM112.511 27.24C111.937 27.24 111.371 27.1667 110.811 27.02C110.264 26.8733 109.751 26.6667 109.271 26.4C108.804 26.12 108.404 25.8 108.071 25.44L109.811 23.68C110.131 24.0267 110.511 24.3 110.951 24.5C111.391 24.6867 111.871 24.78 112.391 24.78C112.751 24.78 113.024 24.7267 113.211 24.62C113.411 24.5133 113.511 24.3667 113.511 24.18C113.511 23.94 113.391 23.76 113.151 23.64C112.924 23.5067 112.631 23.3933 112.271 23.3C111.911 23.1933 111.531 23.08 111.131 22.96C110.731 22.84 110.351 22.6733 109.991 22.46C109.631 22.2467 109.337 21.9533 109.111 21.58C108.884 21.1933 108.771 20.7067 108.771 20.12C108.771 19.4933 108.931 18.9533 109.251 18.5C109.571 18.0333 110.024 17.6667 110.611 17.4C111.197 17.1333 111.884 17 112.671 17C113.497 17 114.257 17.1467 114.951 17.44C115.657 17.72 116.231 18.14 116.671 18.7L114.931 20.46C114.624 20.1 114.277 19.8467 113.891 19.7C113.517 19.5533 113.151 19.48 112.791 19.48C112.444 19.48 112.184 19.5333 112.011 19.64C111.837 19.7333 111.751 19.8733 111.751 20.06C111.751 20.26 111.864 20.42 112.091 20.54C112.317 20.66 112.611 20.7667 112.971 20.86C113.331 20.9533 113.711 21.0667 114.111 21.2C114.511 21.3333 114.891 21.5133 115.251 21.74C115.611 21.9667 115.904 22.2733 116.131 22.66C116.357 23.0333 116.471 23.5267 116.471 24.14C116.471 25.0867 116.111 25.84 115.391 26.4C114.684 26.96 113.724 27.24 112.511 27.24ZM122.451 27.22C121.557 27.22 120.764 27.04 120.071 26.68C119.391 26.3067 118.857 25.8 118.471 25.16C118.084 24.5067 117.891 23.76 117.891 22.92V17.28H120.951V22.88C120.951 23.2133 121.004 23.5 121.111 23.74C121.231 23.98 121.404 24.1667 121.631 24.3C121.857 24.4333 122.131 24.5 122.451 24.5C122.904 24.5 123.264 24.36 123.531 24.08C123.797 23.7867 123.931 23.3867 123.931 22.88V17.28H126.991V22.9C126.991 23.7533 126.797 24.5067 126.411 25.16C126.024 25.8 125.491 26.3067 124.811 26.68C124.131 27.04 123.344 27.22 122.451 27.22ZM128.912 27V17.28H131.972V27H128.912ZM135.132 27V21.32C135.132 20.8267 134.979 20.4467 134.672 20.18C134.379 19.9 134.012 19.76 133.572 19.76C133.265 19.76 132.992 19.8267 132.752 19.96C132.512 20.08 132.319 20.2533 132.172 20.48C132.039 20.7067 131.972 20.9867 131.972 21.32L130.792 20.8C130.792 20.0267 130.959 19.3667 131.292 18.82C131.625 18.26 132.079 17.8333 132.652 17.54C133.225 17.2333 133.872 17.08 134.592 17.08C135.272 17.08 135.879 17.2333 136.412 17.54C136.959 17.8467 137.392 18.2733 137.712 18.82C138.032 19.3667 138.192 20.02 138.192 20.78V27H135.132ZM141.352 27V21.32C141.352 20.8267 141.199 20.4467 140.892 20.18C140.599 19.9 140.232 19.76 139.792 19.76C139.485 19.76 139.212 19.8267 138.972 19.96C138.732 20.08 138.539 20.2533 138.392 20.48C138.259 20.7067 138.192 20.9867 138.192 21.32L136.432 21.08C136.459 20.2533 136.652 19.5467 137.012 18.96C137.385 18.36 137.872 17.9 138.472 17.58C139.085 17.2467 139.772 17.08 140.532 17.08C141.279 17.08 141.939 17.24 142.512 17.56C143.099 17.8667 143.559 18.3133 143.892 18.9C144.239 19.4733 144.412 20.1667 144.412 20.98V27H141.352Z" fill="white"/>
</g>
<defs>
<clipPath id="clip0_5_78">
<rect width="146" height="40" fill="white"/>
</clipPath>
</defs>
</svg>
