<svg width="105" height="32" viewBox="0 0 105 32" fill="none" xmlns="http://www.w3.org/2000/svg">
<g clip-path="url(#clip0_5_155)">
<path d="M12.2616 28.5584C8.82811 31.992 3.01306 31.9783 1.38907 27.4022C1.07112 26.5063 0.816905 25.585 0.62993 24.6451C-0.133483 20.8071 0.258328 16.829 1.75582 13.2136C3.25331 9.59844 5.78922 6.50842 9.04287 4.3344C12.2966 2.16038 16.1218 1 20.035 1C23.9481 1 27.7733 2.16038 31.0269 4.3344C34.2806 6.50842 36.8165 9.59844 38.314 13.2138C39.8115 16.829 40.2033 20.8071 39.4399 24.6451C39.253 25.585 38.9987 26.5063 38.6807 27.4022C37.0567 31.9783 31.2417 31.992 27.8082 28.5584L22.5081 23.2583C22.0017 22.7519 22.054 21.9168 22.1937 21.2145C22.2786 20.7876 22.235 20.3451 22.0684 19.9429C21.9018 19.5407 21.6197 19.1969 21.2578 18.9551C20.8958 18.7133 20.4703 18.5841 20.035 18.5841C19.5996 18.5841 19.1741 18.7133 18.8121 18.9551C18.4501 19.1969 18.168 19.5407 18.0014 19.9429C17.8348 20.3451 17.7912 20.7876 17.8762 21.2145C18.0159 21.9168 18.0681 22.7519 17.5617 23.2583L12.2616 28.5584Z" fill="white"/>
<path d="M51.1801 23V8.88H54.3201V23H51.1801ZM53.6001 23V20.24H60.5801V23H53.6001ZM66.6348 23.22C65.6348 23.22 64.7281 23 63.9148 22.56C63.1148 22.1067 62.4814 21.4933 62.0148 20.72C61.5481 19.9467 61.3148 19.08 61.3148 18.12C61.3148 17.16 61.5481 16.3 62.0148 15.54C62.4814 14.78 63.1148 14.18 63.9148 13.74C64.7148 13.2867 65.6214 13.06 66.6348 13.06C67.6481 13.06 68.5548 13.28 69.3548 13.72C70.1548 14.16 70.7881 14.7667 71.2548 15.54C71.7214 16.3 71.9548 17.16 71.9548 18.12C71.9548 19.08 71.7214 19.9467 71.2548 20.72C70.7881 21.4933 70.1548 22.1067 69.3548 22.56C68.5548 23 67.6481 23.22 66.6348 23.22ZM66.6348 20.44C67.0748 20.44 67.4614 20.3467 67.7948 20.16C68.1281 19.96 68.3814 19.6867 68.5548 19.34C68.7414 18.98 68.8348 18.5733 68.8348 18.12C68.8348 17.6667 68.7414 17.2733 68.5548 16.94C68.3681 16.5933 68.1081 16.3267 67.7748 16.14C67.4548 15.94 67.0748 15.84 66.6348 15.84C66.2081 15.84 65.8281 15.94 65.4948 16.14C65.1614 16.3267 64.9014 16.5933 64.7148 16.94C64.5281 17.2867 64.4348 17.6867 64.4348 18.14C64.4348 18.58 64.5281 18.98 64.7148 19.34C64.9014 19.6867 65.1614 19.96 65.4948 20.16C65.8281 20.3467 66.2081 20.44 66.6348 20.44ZM77.5982 27.36C76.5315 27.36 75.5915 27.1733 74.7782 26.8C73.9782 26.44 73.3449 25.9267 72.8782 25.26L74.7582 23.38C75.1049 23.7933 75.4915 24.1067 75.9182 24.32C76.3582 24.5333 76.8849 24.64 77.4982 24.64C78.2582 24.64 78.8515 24.4533 79.2782 24.08C79.7182 23.7067 79.9382 23.18 79.9382 22.5V20.02L80.4582 17.9L79.9982 15.78V13.28H82.9982V22.42C82.9982 23.42 82.7649 24.2867 82.2982 25.02C81.8315 25.7533 81.1915 26.3267 80.3782 26.74C79.5649 27.1533 78.6382 27.36 77.5982 27.36ZM77.4582 22.7C76.5649 22.7 75.7715 22.4867 75.0782 22.06C74.3849 21.6333 73.8382 21.0533 73.4382 20.32C73.0382 19.5867 72.8382 18.7733 72.8382 17.88C72.8382 16.9733 73.0382 16.16 73.4382 15.44C73.8382 14.7067 74.3849 14.1333 75.0782 13.72C75.7715 13.2933 76.5649 13.08 77.4582 13.08C78.1249 13.08 78.7182 13.2067 79.2382 13.46C79.7715 13.7 80.1982 14.0467 80.5182 14.5C80.8515 14.94 81.0382 15.4533 81.0782 16.04V19.74C81.0382 20.3133 80.8515 20.8267 80.5182 21.28C80.1982 21.72 79.7715 22.0667 79.2382 22.32C78.7049 22.5733 78.1115 22.7 77.4582 22.7ZM78.0382 19.98C78.4649 19.98 78.8315 19.8867 79.1382 19.7C79.4582 19.5133 79.6982 19.2667 79.8582 18.96C80.0315 18.64 80.1182 18.28 80.1182 17.88C80.1182 17.48 80.0315 17.12 79.8582 16.8C79.6982 16.48 79.4582 16.2267 79.1382 16.04C78.8315 15.8533 78.4649 15.76 78.0382 15.76C77.6249 15.76 77.2582 15.8533 76.9382 16.04C76.6182 16.2267 76.3715 16.48 76.1982 16.8C76.0249 17.12 75.9382 17.48 75.9382 17.88C75.9382 18.2533 76.0249 18.6067 76.1982 18.94C76.3715 19.26 76.6115 19.5133 76.9182 19.7C77.2382 19.8867 77.6115 19.98 78.0382 19.98ZM89.8379 23.22C88.8379 23.22 87.9312 23 87.1179 22.56C86.3179 22.1067 85.6845 21.4933 85.2179 20.72C84.7512 19.9467 84.5179 19.08 84.5179 18.12C84.5179 17.16 84.7512 16.3 85.2179 15.54C85.6845 14.78 86.3179 14.18 87.1179 13.74C87.9179 13.2867 88.8245 13.06 89.8379 13.06C90.8512 13.06 91.7579 13.28 92.5579 13.72C93.3579 14.16 93.9912 14.7667 94.4579 15.54C94.9245 16.3 95.1579 17.16 95.1579 18.12C95.1579 19.08 94.9245 19.9467 94.4579 20.72C93.9912 21.4933 93.3579 22.1067 92.5579 22.56C91.7579 23 90.8512 23.22 89.8379 23.22ZM89.8379 20.44C90.2779 20.44 90.6645 20.3467 90.9979 20.16C91.3312 19.96 91.5845 19.6867 91.7579 19.34C91.9445 18.98 92.0379 18.5733 92.0379 18.12C92.0379 17.6667 91.9445 17.2733 91.7579 16.94C91.5712 16.5933 91.3112 16.3267 90.9779 16.14C90.6579 15.94 90.2779 15.84 89.8379 15.84C89.4112 15.84 89.0312 15.94 88.6979 16.14C88.3645 16.3267 88.1045 16.5933 87.9179 16.94C87.7312 17.2867 87.6379 17.6867 87.6379 18.14C87.6379 18.58 87.7312 18.98 87.9179 19.34C88.1045 19.6867 88.3645 19.96 88.6979 20.16C89.0312 20.3467 89.4112 20.44 89.8379 20.44ZM96.6813 23V13.28H99.7413V23H96.6813ZM98.2213 11.94C97.7413 11.94 97.3413 11.78 97.0213 11.46C96.7147 11.1267 96.5613 10.7267 96.5613 10.26C96.5613 9.78 96.7147 9.38 97.0213 9.06C97.3413 8.74 97.7413 8.58 98.2213 8.58C98.7013 8.58 99.0947 8.74 99.4013 9.06C99.708 9.38 99.8613 9.78 99.8613 10.26C99.8613 10.7267 99.708 11.1267 99.4013 11.46C99.0947 11.78 98.7013 11.94 98.2213 11.94ZM107.496 23.2C106.843 23.2 106.243 23.0733 105.696 22.82C105.149 22.5667 104.703 22.22 104.356 21.78C104.009 21.3267 103.809 20.8133 103.756 20.24V16.14C103.809 15.5667 104.009 15.0467 104.356 14.58C104.703 14.1133 105.149 13.7467 105.696 13.48C106.243 13.2133 106.843 13.08 107.496 13.08C108.416 13.08 109.229 13.3 109.936 13.74C110.656 14.18 111.216 14.78 111.616 15.54C112.029 16.3 112.236 17.1667 112.236 18.14C112.236 19.1133 112.029 19.98 111.616 20.74C111.216 21.5 110.656 22.1 109.936 22.54C109.229 22.98 108.416 23.2 107.496 23.2ZM101.896 27.1V13.28H104.956V15.78L104.456 18.14L104.916 20.5V27.1H101.896ZM106.936 20.44C107.376 20.44 107.756 20.34 108.076 20.14C108.409 19.94 108.669 19.6667 108.856 19.32C109.043 18.9733 109.136 18.58 109.136 18.14C109.136 17.6867 109.043 17.2867 108.856 16.94C108.669 16.5933 108.409 16.3267 108.076 16.14C107.756 15.94 107.383 15.84 106.956 15.84C106.529 15.84 106.149 15.94 105.816 16.14C105.496 16.3267 105.243 16.5933 105.056 16.94C104.869 17.2867 104.776 17.6867 104.776 18.14C104.776 18.58 104.863 18.9733 105.036 19.32C105.223 19.6667 105.483 19.94 105.816 20.14C106.149 20.34 106.523 20.44 106.936 20.44ZM117.331 23.24C116.757 23.24 116.191 23.1667 115.631 23.02C115.084 22.8733 114.571 22.6667 114.091 22.4C113.624 22.12 113.224 21.8 112.891 21.44L114.631 19.68C114.951 20.0267 115.331 20.3 115.771 20.5C116.211 20.6867 116.691 20.78 117.211 20.78C117.571 20.78 117.844 20.7267 118.031 20.62C118.231 20.5133 118.331 20.3667 118.331 20.18C118.331 19.94 118.211 19.76 117.971 19.64C117.744 19.5067 117.451 19.3933 117.091 19.3C116.731 19.1933 116.351 19.08 115.951 18.96C115.551 18.84 115.171 18.6733 114.811 18.46C114.451 18.2467 114.157 17.9533 113.931 17.58C113.704 17.1933 113.591 16.7067 113.591 16.12C113.591 15.4933 113.751 14.9533 114.071 14.5C114.391 14.0333 114.844 13.6667 115.431 13.4C116.017 13.1333 116.704 13 117.491 13C118.317 13 119.077 13.1467 119.771 13.44C120.477 13.72 121.051 14.14 121.491 14.7L119.751 16.46C119.444 16.1 119.097 15.8467 118.711 15.7C118.337 15.5533 117.971 15.48 117.611 15.48C117.264 15.48 117.004 15.5333 116.831 15.64C116.657 15.7333 116.571 15.8733 116.571 16.06C116.571 16.26 116.684 16.42 116.911 16.54C117.137 16.66 117.431 16.7667 117.791 16.86C118.151 16.9533 118.531 17.0667 118.931 17.2C119.331 17.3333 119.711 17.5133 120.071 17.74C120.431 17.9667 120.724 18.2733 120.951 18.66C121.177 19.0333 121.291 19.5267 121.291 20.14C121.291 21.0867 120.931 21.84 120.211 22.4C119.504 22.96 118.544 23.24 117.331 23.24ZM127.271 23.22C126.378 23.22 125.584 23.04 124.891 22.68C124.211 22.3067 123.678 21.8 123.291 21.16C122.904 20.5067 122.711 19.76 122.711 18.92V13.28H125.771V18.88C125.771 19.2133 125.824 19.5 125.931 19.74C126.051 19.98 126.224 20.1667 126.451 20.3C126.678 20.4333 126.951 20.5 127.271 20.5C127.724 20.5 128.084 20.36 128.351 20.08C128.618 19.7867 128.751 19.3867 128.751 18.88V13.28H131.811V18.9C131.811 19.7533 131.618 20.5067 131.231 21.16C130.844 21.8 130.311 22.3067 129.631 22.68C128.951 23.04 128.164 23.22 127.271 23.22ZM133.732 23V13.28H136.792V23H133.732ZM139.952 23V17.32C139.952 16.8267 139.799 16.4467 139.492 16.18C139.199 15.9 138.832 15.76 138.392 15.76C138.085 15.76 137.812 15.8267 137.572 15.96C137.332 16.08 137.139 16.2533 136.992 16.48C136.859 16.7067 136.792 16.9867 136.792 17.32L135.612 16.8C135.612 16.0267 135.779 15.3667 136.112 14.82C136.445 14.26 136.899 13.8333 137.472 13.54C138.045 13.2333 138.692 13.08 139.412 13.08C140.092 13.08 140.699 13.2333 141.232 13.54C141.779 13.8467 142.212 14.2733 142.532 14.82C142.852 15.3667 143.012 16.02 143.012 16.78V23H139.952ZM146.172 23V17.32C146.172 16.8267 146.019 16.4467 145.712 16.18C145.419 15.9 145.052 15.76 144.612 15.76C144.305 15.76 144.032 15.8267 143.792 15.96C143.552 16.08 143.359 16.2533 143.212 16.48C143.079 16.7067 143.012 16.9867 143.012 17.32L141.252 17.08C141.279 16.2533 141.472 15.5467 141.832 14.96C142.205 14.36 142.692 13.9 143.292 13.58C143.905 13.2467 144.592 13.08 145.352 13.08C146.099 13.08 146.759 13.24 147.332 13.56C147.919 13.8667 148.379 14.3133 148.712 14.9C149.059 15.4733 149.232 16.1667 149.232 16.98V23H146.172Z" fill="white"/>
</g>
<defs>
<clipPath id="clip0_5_155">
<rect width="150.57" height="32" fill="white" transform="translate(0.249756)"/>
</clipPath>
</defs>
</svg>
