<svg width="146" height="36" viewBox="0 0 146 36" fill="none" xmlns="http://www.w3.org/2000/svg">
<g clip-path="url(#clip0_5_100)">
<path d="M0.598636 15.8915C1.67607 11.4965 4.17137 7.59361 7.68721 4.80445C11.2031 2.01524 15.5374 0.5 19.9999 0.5C24.4624 0.5 28.7967 2.01524 32.3125 4.80445C35.8284 7.59361 38.3236 11.4965 39.4011 15.8915H37.6487C34.6924 15.8473 31.7967 16.744 29.3683 18.4555C29.2281 18.5585 29.0817 18.6527 28.9301 18.7371H28.7257C28.5741 18.6527 28.4278 18.5585 28.2876 18.4555C25.8376 16.7835 22.9522 15.8906 19.9999 15.8906C17.0476 15.8906 14.1621 16.7835 11.7122 18.4555C11.572 18.5585 11.4257 18.6527 11.2741 18.7371H11.0696C10.918 18.6527 10.7717 18.5585 10.6315 18.4555C8.20302 16.744 5.30736 15.8473 2.3511 15.8915H0.598636ZM34.4942 25.1844C35.3938 24.4734 36.5088 24.1014 37.6487 24.1321H39.9999V19.3745H37.6487C35.6409 19.3498 33.6792 19.9841 32.0554 21.1826C31.1416 21.8664 30.0362 22.2353 28.9009 22.2353C27.7656 22.2353 26.6603 21.8664 25.7465 21.1826C24.0815 20.0064 22.1015 19.3758 20.0729 19.3758C18.0443 19.3758 16.0643 20.0064 14.3993 21.1826C13.4855 21.8664 12.3802 22.2353 11.2449 22.2353C10.1096 22.2353 9.00419 21.8664 8.09042 21.1826C6.44661 19.9686 4.45669 19.3337 2.42412 19.3745H-0.00012207V24.1321H2.3511C3.49095 24.1014 4.60594 24.4734 5.50554 25.1844C7.16746 26.3615 9.14526 26.9926 11.1718 26.9926C13.1984 26.9926 15.1762 26.3615 16.8381 25.1844C17.7389 24.4756 18.853 24.1039 19.9926 24.1321C21.1328 24.0989 22.2486 24.4712 23.147 25.1844C24.812 26.3608 26.792 26.9913 28.8206 26.9913C30.8492 26.9913 32.8292 26.3608 34.4942 25.1844ZM34.4942 33.6918C35.3938 32.9808 36.5088 32.6088 37.6487 32.6395H39.9999V27.8819H37.6487C35.6409 27.8573 33.6792 28.4915 32.0554 29.6901C31.1416 30.3738 30.0362 30.7427 28.9009 30.7427C27.7656 30.7427 26.6603 30.3738 25.7465 29.6901C24.0815 28.5138 22.1015 27.8833 20.0729 27.8833C18.0443 27.8833 16.0643 28.5138 14.3993 29.6901C13.4855 30.3738 12.3802 30.7427 11.2449 30.7427C10.1096 30.7427 9.00419 30.3738 8.09042 29.6901C6.44661 28.4762 4.45669 27.8411 2.42412 27.8819H-0.00012207V32.6395H2.3511C3.49095 32.6088 4.60594 32.9808 5.50554 33.6918C7.16746 34.8689 9.14526 35.5 11.1718 35.5C13.1984 35.5 15.1762 34.8689 16.8381 33.6918C17.7389 32.9831 18.853 32.6113 19.9926 32.6395C21.1328 32.6063 22.2486 32.9786 23.147 33.6918C24.812 34.8682 26.792 35.4987 28.8206 35.4987C30.8492 35.4987 32.8292 34.8682 34.4942 33.6918Z" fill="white"/>
<path d="M46.3599 25V10.88H49.4999V25H46.3599ZM48.7799 25V22.24H55.7599V25H48.7799ZM61.8146 25.22C60.8146 25.22 59.9079 25 59.0946 24.56C58.2946 24.1067 57.6612 23.4933 57.1946 22.72C56.7279 21.9467 56.4946 21.08 56.4946 20.12C56.4946 19.16 56.7279 18.3 57.1946 17.54C57.6612 16.78 58.2946 16.18 59.0946 15.74C59.8946 15.2867 60.8012 15.06 61.8146 15.06C62.8279 15.06 63.7346 15.28 64.5346 15.72C65.3346 16.16 65.9679 16.7667 66.4346 17.54C66.9012 18.3 67.1346 19.16 67.1346 20.12C67.1346 21.08 66.9012 21.9467 66.4346 22.72C65.9679 23.4933 65.3346 24.1067 64.5346 24.56C63.7346 25 62.8279 25.22 61.8146 25.22ZM61.8146 22.44C62.2546 22.44 62.6412 22.3467 62.9746 22.16C63.3079 21.96 63.5612 21.6867 63.7346 21.34C63.9212 20.98 64.0146 20.5733 64.0146 20.12C64.0146 19.6667 63.9212 19.2733 63.7346 18.94C63.5479 18.5933 63.2879 18.3267 62.9546 18.14C62.6346 17.94 62.2546 17.84 61.8146 17.84C61.3879 17.84 61.0079 17.94 60.6746 18.14C60.3412 18.3267 60.0812 18.5933 59.8946 18.94C59.7079 19.2867 59.6146 19.6867 59.6146 20.14C59.6146 20.58 59.7079 20.98 59.8946 21.34C60.0812 21.6867 60.3412 21.96 60.6746 22.16C61.0079 22.3467 61.3879 22.44 61.8146 22.44ZM72.778 29.36C71.7113 29.36 70.7713 29.1733 69.958 28.8C69.158 28.44 68.5247 27.9267 68.058 27.26L69.938 25.38C70.2847 25.7933 70.6713 26.1067 71.098 26.32C71.538 26.5333 72.0647 26.64 72.678 26.64C73.438 26.64 74.0313 26.4533 74.458 26.08C74.898 25.7067 75.118 25.18 75.118 24.5V22.02L75.638 19.9L75.178 17.78V15.28H78.178V24.42C78.178 25.42 77.9447 26.2867 77.478 27.02C77.0113 27.7533 76.3713 28.3267 75.558 28.74C74.7447 29.1533 73.818 29.36 72.778 29.36ZM72.638 24.7C71.7447 24.7 70.9513 24.4867 70.258 24.06C69.5647 23.6333 69.018 23.0533 68.618 22.32C68.218 21.5867 68.018 20.7733 68.018 19.88C68.018 18.9733 68.218 18.16 68.618 17.44C69.018 16.7067 69.5647 16.1333 70.258 15.72C70.9513 15.2933 71.7447 15.08 72.638 15.08C73.3047 15.08 73.898 15.2067 74.418 15.46C74.9513 15.7 75.378 16.0467 75.698 16.5C76.0313 16.94 76.218 17.4533 76.258 18.04V21.74C76.218 22.3133 76.0313 22.8267 75.698 23.28C75.378 23.72 74.9513 24.0667 74.418 24.32C73.8847 24.5733 73.2913 24.7 72.638 24.7ZM73.218 21.98C73.6447 21.98 74.0113 21.8867 74.318 21.7C74.638 21.5133 74.878 21.2667 75.038 20.96C75.2113 20.64 75.298 20.28 75.298 19.88C75.298 19.48 75.2113 19.12 75.038 18.8C74.878 18.48 74.638 18.2267 74.318 18.04C74.0113 17.8533 73.6447 17.76 73.218 17.76C72.8047 17.76 72.438 17.8533 72.118 18.04C71.798 18.2267 71.5513 18.48 71.378 18.8C71.2047 19.12 71.118 19.48 71.118 19.88C71.118 20.2533 71.2047 20.6067 71.378 20.94C71.5513 21.26 71.7913 21.5133 72.098 21.7C72.418 21.8867 72.7913 21.98 73.218 21.98ZM85.0177 25.22C84.0177 25.22 83.111 25 82.2977 24.56C81.4977 24.1067 80.8644 23.4933 80.3977 22.72C79.931 21.9467 79.6977 21.08 79.6977 20.12C79.6977 19.16 79.931 18.3 80.3977 17.54C80.8644 16.78 81.4977 16.18 82.2977 15.74C83.0977 15.2867 84.0044 15.06 85.0177 15.06C86.031 15.06 86.9377 15.28 87.7377 15.72C88.5377 16.16 89.171 16.7667 89.6377 17.54C90.1044 18.3 90.3377 19.16 90.3377 20.12C90.3377 21.08 90.1044 21.9467 89.6377 22.72C89.171 23.4933 88.5377 24.1067 87.7377 24.56C86.9377 25 86.031 25.22 85.0177 25.22ZM85.0177 22.44C85.4577 22.44 85.8444 22.3467 86.1777 22.16C86.511 21.96 86.7644 21.6867 86.9377 21.34C87.1244 20.98 87.2177 20.5733 87.2177 20.12C87.2177 19.6667 87.1244 19.2733 86.9377 18.94C86.751 18.5933 86.491 18.3267 86.1577 18.14C85.8377 17.94 85.4577 17.84 85.0177 17.84C84.591 17.84 84.211 17.94 83.8777 18.14C83.5444 18.3267 83.2844 18.5933 83.0977 18.94C82.911 19.2867 82.8177 19.6867 82.8177 20.14C82.8177 20.58 82.911 20.98 83.0977 21.34C83.2844 21.6867 83.5444 21.96 83.8777 22.16C84.211 22.3467 84.591 22.44 85.0177 22.44ZM91.8611 25V15.28H94.9211V25H91.8611ZM93.4011 13.94C92.9211 13.94 92.5211 13.78 92.2011 13.46C91.8945 13.1267 91.7411 12.7267 91.7411 12.26C91.7411 11.78 91.8945 11.38 92.2011 11.06C92.5211 10.74 92.9211 10.58 93.4011 10.58C93.8811 10.58 94.2745 10.74 94.5811 11.06C94.8878 11.38 95.0411 11.78 95.0411 12.26C95.0411 12.7267 94.8878 13.1267 94.5811 13.46C94.2745 13.78 93.8811 13.94 93.4011 13.94ZM102.676 25.2C102.023 25.2 101.423 25.0733 100.876 24.82C100.329 24.5667 99.8826 24.22 99.536 23.78C99.1893 23.3267 98.9893 22.8133 98.936 22.24V18.14C98.9893 17.5667 99.1893 17.0467 99.536 16.58C99.8826 16.1133 100.329 15.7467 100.876 15.48C101.423 15.2133 102.023 15.08 102.676 15.08C103.596 15.08 104.409 15.3 105.116 15.74C105.836 16.18 106.396 16.78 106.796 17.54C107.209 18.3 107.416 19.1667 107.416 20.14C107.416 21.1133 107.209 21.98 106.796 22.74C106.396 23.5 105.836 24.1 105.116 24.54C104.409 24.98 103.596 25.2 102.676 25.2ZM97.076 29.1V15.28H100.136V17.78L99.636 20.14L100.096 22.5V29.1H97.076ZM102.116 22.44C102.556 22.44 102.936 22.34 103.256 22.14C103.589 21.94 103.849 21.6667 104.036 21.32C104.223 20.9733 104.316 20.58 104.316 20.14C104.316 19.6867 104.223 19.2867 104.036 18.94C103.849 18.5933 103.589 18.3267 103.256 18.14C102.936 17.94 102.563 17.84 102.136 17.84C101.709 17.84 101.329 17.94 100.996 18.14C100.676 18.3267 100.423 18.5933 100.236 18.94C100.049 19.2867 99.956 19.6867 99.956 20.14C99.956 20.58 100.043 20.9733 100.216 21.32C100.403 21.6667 100.663 21.94 100.996 22.14C101.329 22.34 101.703 22.44 102.116 22.44ZM112.511 25.24C111.937 25.24 111.371 25.1667 110.811 25.02C110.264 24.8733 109.751 24.6667 109.271 24.4C108.804 24.12 108.404 23.8 108.071 23.44L109.811 21.68C110.131 22.0267 110.511 22.3 110.951 22.5C111.391 22.6867 111.871 22.78 112.391 22.78C112.751 22.78 113.024 22.7267 113.211 22.62C113.411 22.5133 113.511 22.3667 113.511 22.18C113.511 21.94 113.391 21.76 113.151 21.64C112.924 21.5067 112.631 21.3933 112.271 21.3C111.911 21.1933 111.531 21.08 111.131 20.96C110.731 20.84 110.351 20.6733 109.991 20.46C109.631 20.2467 109.337 19.9533 109.111 19.58C108.884 19.1933 108.771 18.7067 108.771 18.12C108.771 17.4933 108.931 16.9533 109.251 16.5C109.571 16.0333 110.024 15.6667 110.611 15.4C111.197 15.1333 111.884 15 112.671 15C113.497 15 114.257 15.1467 114.951 15.44C115.657 15.72 116.231 16.14 116.671 16.7L114.931 18.46C114.624 18.1 114.277 17.8467 113.891 17.7C113.517 17.5533 113.151 17.48 112.791 17.48C112.444 17.48 112.184 17.5333 112.011 17.64C111.837 17.7333 111.751 17.8733 111.751 18.06C111.751 18.26 111.864 18.42 112.091 18.54C112.317 18.66 112.611 18.7667 112.971 18.86C113.331 18.9533 113.711 19.0667 114.111 19.2C114.511 19.3333 114.891 19.5133 115.251 19.74C115.611 19.9667 115.904 20.2733 116.131 20.66C116.357 21.0333 116.471 21.5267 116.471 22.14C116.471 23.0867 116.111 23.84 115.391 24.4C114.684 24.96 113.724 25.24 112.511 25.24ZM122.451 25.22C121.557 25.22 120.764 25.04 120.071 24.68C119.391 24.3067 118.857 23.8 118.471 23.16C118.084 22.5067 117.891 21.76 117.891 20.92V15.28H120.951V20.88C120.951 21.2133 121.004 21.5 121.111 21.74C121.231 21.98 121.404 22.1667 121.631 22.3C121.857 22.4333 122.131 22.5 122.451 22.5C122.904 22.5 123.264 22.36 123.531 22.08C123.797 21.7867 123.931 21.3867 123.931 20.88V15.28H126.991V20.9C126.991 21.7533 126.797 22.5067 126.411 23.16C126.024 23.8 125.491 24.3067 124.811 24.68C124.131 25.04 123.344 25.22 122.451 25.22ZM128.912 25V15.28H131.972V25H128.912ZM135.132 25V19.32C135.132 18.8267 134.979 18.4467 134.672 18.18C134.379 17.9 134.012 17.76 133.572 17.76C133.265 17.76 132.992 17.8267 132.752 17.96C132.512 18.08 132.319 18.2533 132.172 18.48C132.039 18.7067 131.972 18.9867 131.972 19.32L130.792 18.8C130.792 18.0267 130.959 17.3667 131.292 16.82C131.625 16.26 132.079 15.8333 132.652 15.54C133.225 15.2333 133.872 15.08 134.592 15.08C135.272 15.08 135.879 15.2333 136.412 15.54C136.959 15.8467 137.392 16.2733 137.712 16.82C138.032 17.3667 138.192 18.02 138.192 18.78V25H135.132ZM141.352 25V19.32C141.352 18.8267 141.199 18.4467 140.892 18.18C140.599 17.9 140.232 17.76 139.792 17.76C139.485 17.76 139.212 17.8267 138.972 17.96C138.732 18.08 138.539 18.2533 138.392 18.48C138.259 18.7067 138.192 18.9867 138.192 19.32L136.432 19.08C136.459 18.2533 136.652 17.5467 137.012 16.96C137.385 16.36 137.872 15.9 138.472 15.58C139.085 15.2467 139.772 15.08 140.532 15.08C141.279 15.08 141.939 15.24 142.512 15.56C143.099 15.8667 143.559 16.3133 143.892 16.9C144.239 17.4733 144.412 18.1667 144.412 18.98V25H141.352Z" fill="white"/>
</g>
<defs>
<clipPath id="clip0_5_100">
<rect width="146" height="35" fill="white" transform="translate(-0.00012207 0.5)"/>
</clipPath>
</defs>
</svg>
