<svg width="142" height="36" viewBox="0 0 142 36" fill="none" xmlns="http://www.w3.org/2000/svg">
<path fill-rule="evenodd" clip-rule="evenodd" d="M-0.00012207 2.26415C-0.00012207 1.0137 1.02462 0 2.28885 0H6.27638C7.17611 0 8.04812 0.308429 8.74382 0.872784L9.95684 1.85673L9.98717 1.8841C10.0152 1.87476 10.0431 1.86564 10.0712 1.85673C12.2597 1.16338 14.9148 1.03153 17.6248 1.03153C20.3348 1.03153 22.99 1.16338 25.1784 1.85673C25.2065 1.86564 25.2345 1.87476 25.2625 1.8841L25.2928 1.85673L26.5058 0.872784C27.2015 0.308429 28.0735 0 28.9733 0H32.9608C34.225 0 35.2498 1.0137 35.2498 2.26415V3.66381C35.2498 4.74673 34.7886 5.77956 33.9793 6.50892L33.0008 7.39091C32.5231 7.82149 31.9497 8.13485 31.3269 8.30569L31.0954 8.36919C32.0021 10.5093 32.5031 12.7969 32.5031 14.6475C32.5031 22.0918 27.8466 25.3068 23.7437 28.1397C20.5126 30.3706 17.6248 32.3644 17.6248 36C17.6248 32.3644 14.7371 30.3706 11.506 28.1397C7.40309 25.3068 2.74658 22.0918 2.74658 14.6475C2.74658 12.7969 3.24752 10.5093 4.15427 8.36919L3.92279 8.30569C3.29999 8.13485 2.7266 7.82149 2.24888 7.39091L1.27032 6.50892C0.461036 5.77956 -0.00012207 4.74673 -0.00012207 3.66381V2.26415ZM20.6005 20.7335C20.6005 21.0892 20.4437 21.4302 20.1647 21.6817C19.8857 21.9332 19.5073 22.0745 19.1126 22.0745C18.772 22.0745 18.4433 21.9691 18.1803 21.7785C18.628 22.9638 19.7736 24.0869 21.5161 22.2808C23.0543 20.6025 21.4477 17.0629 19.8824 14.9625C19.3607 14.2624 18.5041 13.9255 17.6248 13.9255C16.7455 13.9255 15.889 14.2624 15.3673 14.9625C13.802 17.0629 12.1953 20.6025 13.7336 22.2808C15.4761 24.0869 16.6217 22.9638 17.0694 21.7785C16.8064 21.9691 16.4777 22.0745 16.137 22.0745C15.7424 22.0745 15.3639 21.9332 15.0849 21.6817C14.8059 21.4302 14.6492 21.0892 14.6492 20.7335H20.6005ZM11.9272 10.2556H7.78235L11.0489 12.8428C11.7677 13.4121 12.8184 13.2301 13.2632 12.4593C13.8248 11.486 13.0788 10.2556 11.9272 10.2556ZM23.3225 10.2556H27.4673L24.2008 12.8428C23.4819 13.4121 22.4313 13.2301 21.9865 12.4593C21.4249 11.486 22.1708 10.2556 23.3225 10.2556Z" fill="white"/>
<path d="M41.6098 25V10.88H44.7498V25H41.6098ZM44.0298 25V22.24H51.0098V25H44.0298ZM57.0644 25.22C56.0644 25.22 55.1578 25 54.3444 24.56C53.5444 24.1067 52.9111 23.4933 52.4444 22.72C51.9778 21.9467 51.7444 21.08 51.7444 20.12C51.7444 19.16 51.9778 18.3 52.4444 17.54C52.9111 16.78 53.5444 16.18 54.3444 15.74C55.1444 15.2867 56.0511 15.06 57.0644 15.06C58.0778 15.06 58.9844 15.28 59.7844 15.72C60.5844 16.16 61.2178 16.7667 61.6844 17.54C62.1511 18.3 62.3844 19.16 62.3844 20.12C62.3844 21.08 62.1511 21.9467 61.6844 22.72C61.2178 23.4933 60.5844 24.1067 59.7844 24.56C58.9844 25 58.0778 25.22 57.0644 25.22ZM57.0644 22.44C57.5044 22.44 57.8911 22.3467 58.2244 22.16C58.5578 21.96 58.8111 21.6867 58.9844 21.34C59.1711 20.98 59.2644 20.5733 59.2644 20.12C59.2644 19.6667 59.1711 19.2733 58.9844 18.94C58.7978 18.5933 58.5378 18.3267 58.2044 18.14C57.8844 17.94 57.5044 17.84 57.0644 17.84C56.6378 17.84 56.2578 17.94 55.9244 18.14C55.5911 18.3267 55.3311 18.5933 55.1444 18.94C54.9578 19.2867 54.8644 19.6867 54.8644 20.14C54.8644 20.58 54.9578 20.98 55.1444 21.34C55.3311 21.6867 55.5911 21.96 55.9244 22.16C56.2578 22.3467 56.6378 22.44 57.0644 22.44ZM68.0279 29.36C66.9612 29.36 66.0212 29.1733 65.2079 28.8C64.4079 28.44 63.7745 27.9267 63.3079 27.26L65.1879 25.38C65.5345 25.7933 65.9212 26.1067 66.3479 26.32C66.7879 26.5333 67.3145 26.64 67.9279 26.64C68.6879 26.64 69.2812 26.4533 69.7079 26.08C70.1479 25.7067 70.3679 25.18 70.3679 24.5V22.02L70.8879 19.9L70.4279 17.78V15.28H73.4279V24.42C73.4279 25.42 73.1945 26.2867 72.7279 27.02C72.2612 27.7533 71.6212 28.3267 70.8079 28.74C69.9945 29.1533 69.0679 29.36 68.0279 29.36ZM67.8879 24.7C66.9945 24.7 66.2012 24.4867 65.5079 24.06C64.8145 23.6333 64.2679 23.0533 63.8679 22.32C63.4679 21.5867 63.2679 20.7733 63.2679 19.88C63.2679 18.9733 63.4679 18.16 63.8679 17.44C64.2679 16.7067 64.8145 16.1333 65.5079 15.72C66.2012 15.2933 66.9945 15.08 67.8879 15.08C68.5545 15.08 69.1479 15.2067 69.6679 15.46C70.2012 15.7 70.6279 16.0467 70.9479 16.5C71.2812 16.94 71.4679 17.4533 71.5079 18.04V21.74C71.4679 22.3133 71.2812 22.8267 70.9479 23.28C70.6279 23.72 70.2012 24.0667 69.6679 24.32C69.1345 24.5733 68.5412 24.7 67.8879 24.7ZM68.4679 21.98C68.8945 21.98 69.2612 21.8867 69.5679 21.7C69.8879 21.5133 70.1279 21.2667 70.2879 20.96C70.4612 20.64 70.5479 20.28 70.5479 19.88C70.5479 19.48 70.4612 19.12 70.2879 18.8C70.1279 18.48 69.8879 18.2267 69.5679 18.04C69.2612 17.8533 68.8945 17.76 68.4679 17.76C68.0545 17.76 67.6879 17.8533 67.3679 18.04C67.0479 18.2267 66.8012 18.48 66.6279 18.8C66.4545 19.12 66.3679 19.48 66.3679 19.88C66.3679 20.2533 66.4545 20.6067 66.6279 20.94C66.8012 21.26 67.0412 21.5133 67.3479 21.7C67.6679 21.8867 68.0412 21.98 68.4679 21.98ZM80.2676 25.22C79.2676 25.22 78.3609 25 77.5476 24.56C76.7476 24.1067 76.1142 23.4933 75.6476 22.72C75.1809 21.9467 74.9476 21.08 74.9476 20.12C74.9476 19.16 75.1809 18.3 75.6476 17.54C76.1142 16.78 76.7476 16.18 77.5476 15.74C78.3476 15.2867 79.2542 15.06 80.2676 15.06C81.2809 15.06 82.1876 15.28 82.9876 15.72C83.7876 16.16 84.4209 16.7667 84.8876 17.54C85.3542 18.3 85.5876 19.16 85.5876 20.12C85.5876 21.08 85.3542 21.9467 84.8876 22.72C84.4209 23.4933 83.7876 24.1067 82.9876 24.56C82.1876 25 81.2809 25.22 80.2676 25.22ZM80.2676 22.44C80.7076 22.44 81.0942 22.3467 81.4276 22.16C81.7609 21.96 82.0142 21.6867 82.1876 21.34C82.3742 20.98 82.4676 20.5733 82.4676 20.12C82.4676 19.6667 82.3742 19.2733 82.1876 18.94C82.0009 18.5933 81.7409 18.3267 81.4076 18.14C81.0876 17.94 80.7076 17.84 80.2676 17.84C79.8409 17.84 79.4609 17.94 79.1276 18.14C78.7942 18.3267 78.5342 18.5933 78.3476 18.94C78.1609 19.2867 78.0676 19.6867 78.0676 20.14C78.0676 20.58 78.1609 20.98 78.3476 21.34C78.5342 21.6867 78.7942 21.96 79.1276 22.16C79.4609 22.3467 79.8409 22.44 80.2676 22.44ZM87.111 25V15.28H90.171V25H87.111ZM88.651 13.94C88.171 13.94 87.771 13.78 87.451 13.46C87.1443 13.1267 86.991 12.7267 86.991 12.26C86.991 11.78 87.1443 11.38 87.451 11.06C87.771 10.74 88.171 10.58 88.651 10.58C89.131 10.58 89.5243 10.74 89.831 11.06C90.1377 11.38 90.291 11.78 90.291 12.26C90.291 12.7267 90.1377 13.1267 89.831 13.46C89.5243 13.78 89.131 13.94 88.651 13.94ZM97.9259 25.2C97.2725 25.2 96.6725 25.0733 96.1258 24.82C95.5792 24.5667 95.1325 24.22 94.7858 23.78C94.4392 23.3267 94.2392 22.8133 94.1858 22.24V18.14C94.2392 17.5667 94.4392 17.0467 94.7858 16.58C95.1325 16.1133 95.5792 15.7467 96.1258 15.48C96.6725 15.2133 97.2725 15.08 97.9259 15.08C98.8459 15.08 99.6592 15.3 100.366 15.74C101.086 16.18 101.646 16.78 102.046 17.54C102.459 18.3 102.666 19.1667 102.666 20.14C102.666 21.1133 102.459 21.98 102.046 22.74C101.646 23.5 101.086 24.1 100.366 24.54C99.6592 24.98 98.8459 25.2 97.9259 25.2ZM92.3258 29.1V15.28H95.3858V17.78L94.8858 20.14L95.3458 22.5V29.1H92.3258ZM97.3659 22.44C97.8058 22.44 98.1858 22.34 98.5058 22.14C98.8392 21.94 99.0992 21.6667 99.2858 21.32C99.4725 20.9733 99.5658 20.58 99.5658 20.14C99.5658 19.6867 99.4725 19.2867 99.2858 18.94C99.0992 18.5933 98.8392 18.3267 98.5058 18.14C98.1858 17.94 97.8125 17.84 97.3858 17.84C96.9592 17.84 96.5792 17.94 96.2458 18.14C95.9258 18.3267 95.6725 18.5933 95.4858 18.94C95.2992 19.2867 95.2058 19.6867 95.2058 20.14C95.2058 20.58 95.2925 20.9733 95.4658 21.32C95.6525 21.6667 95.9125 21.94 96.2458 22.14C96.5792 22.34 96.9525 22.44 97.3659 22.44ZM107.76 25.24C107.187 25.24 106.62 25.1667 106.06 25.02C105.514 24.8733 105 24.6667 104.52 24.4C104.054 24.12 103.654 23.8 103.32 23.44L105.06 21.68C105.38 22.0267 105.76 22.3 106.2 22.5C106.64 22.6867 107.12 22.78 107.64 22.78C108 22.78 108.274 22.7267 108.46 22.62C108.66 22.5133 108.76 22.3667 108.76 22.18C108.76 21.94 108.64 21.76 108.4 21.64C108.174 21.5067 107.88 21.3933 107.52 21.3C107.16 21.1933 106.78 21.08 106.38 20.96C105.98 20.84 105.6 20.6733 105.24 20.46C104.88 20.2467 104.587 19.9533 104.36 19.58C104.134 19.1933 104.02 18.7067 104.02 18.12C104.02 17.4933 104.18 16.9533 104.5 16.5C104.82 16.0333 105.274 15.6667 105.86 15.4C106.447 15.1333 107.134 15 107.92 15C108.747 15 109.507 15.1467 110.2 15.44C110.907 15.72 111.48 16.14 111.92 16.7L110.18 18.46C109.874 18.1 109.527 17.8467 109.14 17.7C108.767 17.5533 108.4 17.48 108.04 17.48C107.694 17.48 107.434 17.5333 107.26 17.64C107.087 17.7333 107 17.8733 107 18.06C107 18.26 107.114 18.42 107.34 18.54C107.567 18.66 107.86 18.7667 108.22 18.86C108.58 18.9533 108.96 19.0667 109.36 19.2C109.76 19.3333 110.14 19.5133 110.5 19.74C110.86 19.9667 111.154 20.2733 111.38 20.66C111.607 21.0333 111.72 21.5267 111.72 22.14C111.72 23.0867 111.36 23.84 110.64 24.4C109.934 24.96 108.974 25.24 107.76 25.24ZM117.701 25.22C116.807 25.22 116.014 25.04 115.321 24.68C114.641 24.3067 114.107 23.8 113.721 23.16C113.334 22.5067 113.141 21.76 113.141 20.92V15.28H116.201V20.88C116.201 21.2133 116.254 21.5 116.361 21.74C116.481 21.98 116.654 22.1667 116.881 22.3C117.107 22.4333 117.381 22.5 117.701 22.5C118.154 22.5 118.514 22.36 118.781 22.08C119.047 21.7867 119.181 21.3867 119.181 20.88V15.28H122.241V20.9C122.241 21.7533 122.047 22.5067 121.661 23.16C121.274 23.8 120.741 24.3067 120.061 24.68C119.381 25.04 118.594 25.22 117.701 25.22ZM124.162 25V15.28H127.222V25H124.162ZM130.382 25V19.32C130.382 18.8267 130.228 18.4467 129.922 18.18C129.628 17.9 129.262 17.76 128.822 17.76C128.515 17.76 128.242 17.8267 128.002 17.96C127.762 18.08 127.568 18.2533 127.422 18.48C127.288 18.7067 127.222 18.9867 127.222 19.32L126.042 18.8C126.042 18.0267 126.208 17.3667 126.542 16.82C126.875 16.26 127.328 15.8333 127.902 15.54C128.475 15.2333 129.122 15.08 129.842 15.08C130.522 15.08 131.128 15.2333 131.662 15.54C132.208 15.8467 132.642 16.2733 132.962 16.82C133.282 17.3667 133.442 18.02 133.442 18.78V25H130.382ZM136.602 25V19.32C136.602 18.8267 136.448 18.4467 136.142 18.18C135.848 17.9 135.482 17.76 135.042 17.76C134.735 17.76 134.462 17.8267 134.222 17.96C133.982 18.08 133.788 18.2533 133.642 18.48C133.508 18.7067 133.442 18.9867 133.442 19.32L131.682 19.08C131.708 18.2533 131.902 17.5467 132.262 16.96C132.635 16.36 133.122 15.9 133.722 15.58C134.335 15.2467 135.022 15.08 135.782 15.08C136.528 15.08 137.188 15.24 137.762 15.56C138.348 15.8667 138.808 16.3133 139.142 16.9C139.488 17.4733 139.662 18.1667 139.662 18.98V25H136.602Z" fill="white"/>
</svg>
