<svg width="146" height="40" viewBox="0 0 146 40" fill="none" xmlns="http://www.w3.org/2000/svg">
<g clip-path="url(#clip0_5_40)">
<path fill-rule="evenodd" clip-rule="evenodd" d="M20 40C31.0458 40 40 31.0457 40 20C40 8.9543 31.0458 0 20 0C8.95429 0 0 8.9543 0 20C0 31.0457 8.95429 40 20 40ZM23.087 15.4526C24.7918 13.7477 24.7918 10.9836 23.087 9.27866C21.3821 7.57378 18.618 7.57378 16.9131 9.27866C15.2083 10.9836 15.2083 13.7477 16.9131 15.4526L20 18.5395L23.087 15.4526ZM24.5475 23.087C26.2524 24.7919 29.0165 24.7919 30.7214 23.087C32.4262 21.3821 32.4262 18.618 30.7214 16.9131C29.0165 15.2083 26.2524 15.2083 24.5475 16.9131L21.4606 20.0001L24.5475 23.087ZM23.087 30.7214C24.7918 29.0165 24.7918 26.2524 23.087 24.5475L20 21.4606L16.9131 24.5475C15.2083 26.2524 15.2083 29.0165 16.9131 30.7214C18.618 32.4263 21.3821 32.4263 23.087 30.7214ZM9.27863 23.087C7.57379 21.3821 7.57379 18.618 9.27863 16.9131C10.9836 15.2083 13.7477 15.2083 15.4526 16.9131L18.5395 20.0001L15.4526 23.087C13.7477 24.7919 10.9836 24.7919 9.27863 23.087Z" fill="white"/>
<path d="M46.36 27V12.88H49.5V27H46.36ZM48.78 27V24.24H55.76V27H48.78ZM61.8146 27.22C60.8146 27.22 59.908 27 59.0946 26.56C58.2946 26.1067 57.6613 25.4933 57.1946 24.72C56.728 23.9467 56.4946 23.08 56.4946 22.12C56.4946 21.16 56.728 20.3 57.1946 19.54C57.6613 18.78 58.2946 18.18 59.0946 17.74C59.8946 17.2867 60.8013 17.06 61.8146 17.06C62.828 17.06 63.7346 17.28 64.5346 17.72C65.3346 18.16 65.968 18.7667 66.4346 19.54C66.9013 20.3 67.1346 21.16 67.1346 22.12C67.1346 23.08 66.9013 23.9467 66.4346 24.72C65.968 25.4933 65.3346 26.1067 64.5346 26.56C63.7346 27 62.828 27.22 61.8146 27.22ZM61.8146 24.44C62.2546 24.44 62.6413 24.3467 62.9746 24.16C63.308 23.96 63.5613 23.6867 63.7346 23.34C63.9213 22.98 64.0146 22.5733 64.0146 22.12C64.0146 21.6667 63.9213 21.2733 63.7346 20.94C63.548 20.5933 63.288 20.3267 62.9546 20.14C62.6346 19.94 62.2546 19.84 61.8146 19.84C61.388 19.84 61.008 19.94 60.6746 20.14C60.3413 20.3267 60.0813 20.5933 59.8946 20.94C59.708 21.2867 59.6146 21.6867 59.6146 22.14C59.6146 22.58 59.708 22.98 59.8946 23.34C60.0813 23.6867 60.3413 23.96 60.6746 24.16C61.008 24.3467 61.388 24.44 61.8146 24.44ZM72.7781 31.36C71.7114 31.36 70.7714 31.1733 69.9581 30.8C69.1581 30.44 68.5247 29.9267 68.0581 29.26L69.9381 27.38C70.2847 27.7933 70.6714 28.1067 71.0981 28.32C71.5381 28.5333 72.0647 28.64 72.6781 28.64C73.4381 28.64 74.0314 28.4533 74.4581 28.08C74.8981 27.7067 75.1181 27.18 75.1181 26.5V24.02L75.6381 21.9L75.1781 19.78V17.28H78.1781V26.42C78.1781 27.42 77.9447 28.2867 77.4781 29.02C77.0114 29.7533 76.3714 30.3267 75.5581 30.74C74.7447 31.1533 73.8181 31.36 72.7781 31.36ZM72.6381 26.7C71.7447 26.7 70.9514 26.4867 70.2581 26.06C69.5647 25.6333 69.0181 25.0533 68.6181 24.32C68.2181 23.5867 68.0181 22.7733 68.0181 21.88C68.0181 20.9733 68.2181 20.16 68.6181 19.44C69.0181 18.7067 69.5647 18.1333 70.2581 17.72C70.9514 17.2933 71.7447 17.08 72.6381 17.08C73.3047 17.08 73.8981 17.2067 74.4181 17.46C74.9514 17.7 75.3781 18.0467 75.6981 18.5C76.0314 18.94 76.2181 19.4533 76.2581 20.04V23.74C76.2181 24.3133 76.0314 24.8267 75.6981 25.28C75.3781 25.72 74.9514 26.0667 74.4181 26.32C73.8847 26.5733 73.2914 26.7 72.6381 26.7ZM73.2181 23.98C73.6447 23.98 74.0114 23.8867 74.3181 23.7C74.6381 23.5133 74.8781 23.2667 75.0381 22.96C75.2114 22.64 75.2981 22.28 75.2981 21.88C75.2981 21.48 75.2114 21.12 75.0381 20.8C74.8781 20.48 74.6381 20.2267 74.3181 20.04C74.0114 19.8533 73.6447 19.76 73.2181 19.76C72.8047 19.76 72.4381 19.8533 72.1181 20.04C71.7981 20.2267 71.5514 20.48 71.3781 20.8C71.2047 21.12 71.1181 21.48 71.1181 21.88C71.1181 22.2533 71.2047 22.6067 71.3781 22.94C71.5514 23.26 71.7914 23.5133 72.0981 23.7C72.4181 23.8867 72.7914 23.98 73.2181 23.98ZM85.0178 27.22C84.0178 27.22 83.1111 27 82.2978 26.56C81.4978 26.1067 80.8644 25.4933 80.3978 24.72C79.9311 23.9467 79.6978 23.08 79.6978 22.12C79.6978 21.16 79.9311 20.3 80.3978 19.54C80.8644 18.78 81.4978 18.18 82.2978 17.74C83.0978 17.2867 84.0044 17.06 85.0178 17.06C86.0311 17.06 86.9378 17.28 87.7378 17.72C88.5378 18.16 89.1711 18.7667 89.6378 19.54C90.1044 20.3 90.3378 21.16 90.3378 22.12C90.3378 23.08 90.1044 23.9467 89.6378 24.72C89.1711 25.4933 88.5378 26.1067 87.7378 26.56C86.9378 27 86.0311 27.22 85.0178 27.22ZM85.0178 24.44C85.4578 24.44 85.8444 24.3467 86.1778 24.16C86.5111 23.96 86.7644 23.6867 86.9378 23.34C87.1244 22.98 87.2178 22.5733 87.2178 22.12C87.2178 21.6667 87.1244 21.2733 86.9378 20.94C86.7511 20.5933 86.4911 20.3267 86.1578 20.14C85.8378 19.94 85.4578 19.84 85.0178 19.84C84.5911 19.84 84.2111 19.94 83.8778 20.14C83.5444 20.3267 83.2844 20.5933 83.0978 20.94C82.9111 21.2867 82.8178 21.6867 82.8178 22.14C82.8178 22.58 82.9111 22.98 83.0978 23.34C83.2844 23.6867 83.5444 23.96 83.8778 24.16C84.2111 24.3467 84.5911 24.44 85.0178 24.44ZM91.8612 27V17.28H94.9212V27H91.8612ZM93.4012 15.94C92.9212 15.94 92.5212 15.78 92.2012 15.46C91.8945 15.1267 91.7412 14.7267 91.7412 14.26C91.7412 13.78 91.8945 13.38 92.2012 13.06C92.5212 12.74 92.9212 12.58 93.4012 12.58C93.8812 12.58 94.2745 12.74 94.5812 13.06C94.8879 13.38 95.0412 13.78 95.0412 14.26C95.0412 14.7267 94.8879 15.1267 94.5812 15.46C94.2745 15.78 93.8812 15.94 93.4012 15.94ZM102.676 27.2C102.023 27.2 101.423 27.0733 100.876 26.82C100.329 26.5667 99.8827 26.22 99.536 25.78C99.1894 25.3267 98.9894 24.8133 98.936 24.24V20.14C98.9894 19.5667 99.1894 19.0467 99.536 18.58C99.8827 18.1133 100.329 17.7467 100.876 17.48C101.423 17.2133 102.023 17.08 102.676 17.08C103.596 17.08 104.409 17.3 105.116 17.74C105.836 18.18 106.396 18.78 106.796 19.54C107.209 20.3 107.416 21.1667 107.416 22.14C107.416 23.1133 107.209 23.98 106.796 24.74C106.396 25.5 105.836 26.1 105.116 26.54C104.409 26.98 103.596 27.2 102.676 27.2ZM97.076 31.1V17.28H100.136V19.78L99.636 22.14L100.096 24.5V31.1H97.076ZM102.116 24.44C102.556 24.44 102.936 24.34 103.256 24.14C103.589 23.94 103.849 23.6667 104.036 23.32C104.223 22.9733 104.316 22.58 104.316 22.14C104.316 21.6867 104.223 21.2867 104.036 20.94C103.849 20.5933 103.589 20.3267 103.256 20.14C102.936 19.94 102.563 19.84 102.136 19.84C101.709 19.84 101.329 19.94 100.996 20.14C100.676 20.3267 100.423 20.5933 100.236 20.94C100.049 21.2867 99.956 21.6867 99.956 22.14C99.956 22.58 100.043 22.9733 100.216 23.32C100.403 23.6667 100.663 23.94 100.996 24.14C101.329 24.34 101.703 24.44 102.116 24.44ZM112.511 27.24C111.937 27.24 111.371 27.1667 110.811 27.02C110.264 26.8733 109.751 26.6667 109.271 26.4C108.804 26.12 108.404 25.8 108.071 25.44L109.811 23.68C110.131 24.0267 110.511 24.3 110.951 24.5C111.391 24.6867 111.871 24.78 112.391 24.78C112.751 24.78 113.024 24.7267 113.211 24.62C113.411 24.5133 113.511 24.3667 113.511 24.18C113.511 23.94 113.391 23.76 113.151 23.64C112.924 23.5067 112.631 23.3933 112.271 23.3C111.911 23.1933 111.531 23.08 111.131 22.96C110.731 22.84 110.351 22.6733 109.991 22.46C109.631 22.2467 109.337 21.9533 109.111 21.58C108.884 21.1933 108.771 20.7067 108.771 20.12C108.771 19.4933 108.931 18.9533 109.251 18.5C109.571 18.0333 110.024 17.6667 110.611 17.4C111.197 17.1333 111.884 17 112.671 17C113.497 17 114.257 17.1467 114.951 17.44C115.657 17.72 116.231 18.14 116.671 18.7L114.931 20.46C114.624 20.1 114.277 19.8467 113.891 19.7C113.517 19.5533 113.151 19.48 112.791 19.48C112.444 19.48 112.184 19.5333 112.011 19.64C111.837 19.7333 111.751 19.8733 111.751 20.06C111.751 20.26 111.864 20.42 112.091 20.54C112.317 20.66 112.611 20.7667 112.971 20.86C113.331 20.9533 113.711 21.0667 114.111 21.2C114.511 21.3333 114.891 21.5133 115.251 21.74C115.611 21.9667 115.904 22.2733 116.131 22.66C116.357 23.0333 116.471 23.5267 116.471 24.14C116.471 25.0867 116.111 25.84 115.391 26.4C114.684 26.96 113.724 27.24 112.511 27.24ZM122.451 27.22C121.557 27.22 120.764 27.04 120.071 26.68C119.391 26.3067 118.857 25.8 118.471 25.16C118.084 24.5067 117.891 23.76 117.891 22.92V17.28H120.951V22.88C120.951 23.2133 121.004 23.5 121.111 23.74C121.231 23.98 121.404 24.1667 121.631 24.3C121.857 24.4333 122.131 24.5 122.451 24.5C122.904 24.5 123.264 24.36 123.531 24.08C123.797 23.7867 123.931 23.3867 123.931 22.88V17.28H126.991V22.9C126.991 23.7533 126.797 24.5067 126.411 25.16C126.024 25.8 125.491 26.3067 124.811 26.68C124.131 27.04 123.344 27.22 122.451 27.22ZM128.912 27V17.28H131.972V27H128.912ZM135.132 27V21.32C135.132 20.8267 134.979 20.4467 134.672 20.18C134.379 19.9 134.012 19.76 133.572 19.76C133.265 19.76 132.992 19.8267 132.752 19.96C132.512 20.08 132.319 20.2533 132.172 20.48C132.039 20.7067 131.972 20.9867 131.972 21.32L130.792 20.8C130.792 20.0267 130.959 19.3667 131.292 18.82C131.625 18.26 132.079 17.8333 132.652 17.54C133.225 17.2333 133.872 17.08 134.592 17.08C135.272 17.08 135.879 17.2333 136.412 17.54C136.959 17.8467 137.392 18.2733 137.712 18.82C138.032 19.3667 138.192 20.02 138.192 20.78V27H135.132ZM141.352 27V21.32C141.352 20.8267 141.199 20.4467 140.892 20.18C140.599 19.9 140.232 19.76 139.792 19.76C139.485 19.76 139.212 19.8267 138.972 19.96C138.732 20.08 138.539 20.2533 138.392 20.48C138.259 20.7067 138.192 20.9867 138.192 21.32L136.432 21.08C136.459 20.2533 136.652 19.5467 137.012 18.96C137.385 18.36 137.872 17.9 138.472 17.58C139.085 17.2467 139.772 17.08 140.532 17.08C141.279 17.08 141.939 17.24 142.512 17.56C143.099 17.8667 143.559 18.3133 143.892 18.9C144.239 19.4733 144.412 20.1667 144.412 20.98V27H141.352Z" fill="white"/>
</g>
<defs>
<clipPath id="clip0_5_40">
<rect width="146" height="40" fill="white"/>
</clipPath>
</defs>
</svg>
